HIERARCHY
ROOT Hips
{
	OFFSET 0.000000 0.000000 0.000000
	CHANNELS 6 Xposition Yposition Zposition Yrotation Xrotation Zrotation
	JOINT Chest
	{
		OFFSET 0.000000 -0.009281 11.569106
		CHANNELS 3 Yrotation Xrotation Zrotation
		JOINT Chest2
		{
			OFFSET -0.000000 0.016865 9.269641
			CHANNELS 3 Yrotation Xrotation Zrotation
			JOINT Chest3
			{
				OFFSET -0.000000 0.000001 8.374491
				CHANNELS 3 Yrotation Xrotation Zrotation
				JOINT Chest4
				{
					OFFSET -0.000000 0.000001 8.374493
					CHANNELS 3 Yrotation Xrotation Zrotation
					JOINT Neck
					{
						OFFSET -0.000000 0.000002 12.152554
						CHANNELS 3 Yrotation Xrotation Zrotation
						JOINT Head
						{
							OFFSET -0.000000 0.040101 7.802319
							CHANNELS 3 Yrotation Xrotation Zrotation
							End Site
							{
								OFFSET -0.000000 0.020947 14.853096
							}
						}
					}
					JOINT RightCollar
					{
						OFFSET 2.894404 0.000001 6.791374
						CHANNELS 3 Yrotation Xrotation Zrotation
						JOINT RightShoulder
						{
							OFFSET 13.574684 0.000001 0.000000
							CHANNELS 3 Yrotation Xrotation Zrotation
							JOINT RightElbow
							{
								OFFSET 23.923903 0.000002 0.000000
								CHANNELS 3 Yrotation Xrotation Zrotation
								JOINT RightWrist
								{
									OFFSET 19.846718 0.012767 0.000000
									CHANNELS 3 Yrotation Xrotation Zrotation
									End Site
									{
										OFFSET 14.973145 0.000001 0.000000
									}
								}
							}
						}
					}
					JOINT LeftCollar
					{
						OFFSET -2.894404 0.000001 6.791374
						CHANNELS 3 Yrotation Xrotation Zrotation
						JOINT LeftShoulder
						{
							OFFSET -13.574684 -0.000001 0.000000
							CHANNELS 3 Yrotation Xrotation Zrotation
							JOINT LeftElbow
							{
								OFFSET -23.923903 -0.000002 0.000000
								CHANNELS 3 Yrotation Xrotation Zrotation
								JOINT LeftWrist
								{
									OFFSET -19.846718 0.012763 0.000000
									CHANNELS 3 Yrotation Xrotation Zrotation
									End Site
									{
										OFFSET -14.973145 -0.000001 0.000000
									}
								}
							}
						}
					}
				}
			}
		}
	}
	JOINT RightHip
	{
		OFFSET 9.469263 0.004643 0.045487
		CHANNELS 3 Yrotation Xrotation Zrotation
		JOINT RightKnee
		{
			OFFSET 0.000000 0.002661 -40.478676
			CHANNELS 3 Yrotation Xrotation Zrotation
			JOINT RightAnkle
			{
				OFFSET 0.000000 0.049106 -35.224068
				CHANNELS 3 Yrotation Xrotation Zrotation
				JOINT RightToe
				{
					OFFSET -0.000001 12.539529 -6.151390
					CHANNELS 3 Yrotation Xrotation Zrotation
					End Site
					{
						OFFSET -0.000001 5.044994 -1.291870
					}
				}
			}
		}
	}
	JOINT LeftHip
	{
		OFFSET -9.469263 0.004641 0.045487
		CHANNELS 3 Yrotation Xrotation Zrotation
		JOINT LeftKnee
		{
			OFFSET 0.000000 0.002661 -40.478676
			CHANNELS 3 Yrotation Xrotation Zrotation
			JOINT LeftAnkle
			{
				OFFSET 0.000000 0.049106 -35.224068
				CHANNELS 3 Yrotation Xrotation Zrotation
				JOINT LeftToe
				{
					OFFSET -0.000001 12.539529 -6.151390
					CHANNELS 3 Yrotation Xrotation Zrotation
					End Site
					{
						OFFSET -0.000001 5.044994 -1.291870
					}
				}
			}
		}
	}
}
MOTION
Frames: 5
Frame Time: 0.016667
10.906530 6.931099 83.044868 -3.294352 -1.126889 -105.626232 -0.978521 -3.983684 1.895764 -0.409395 -1.774383 0.808638 -0.409395 -1.774383 0.808638 -0.304674 -1.331332 0.605242 5.572893 -21.150408 -12.351695 6.542094 -3.079328 -20.781441 8.909447 14.300708 -5.084219 37.705916 36.217778 1.238568 32.358902 12.875659 49.175723 5.152947 11.021562 8.610881 -6.126849 -4.847497 -5.228386 -51.959062 26.804294 -20.203426 -33.254234 -27.920862 -60.933087 -32.669225 -5.618069 11.996060 -0.513073 -5.446754 -1.992373 1.820384 -2.395086 -10.651114 -0.824167 4.095109 1.668711 0.021927 -0.056336 0.008969 -0.729100 -6.330710 1.643962 0.641344 -0.308312 -0.938537 -0.303979 3.326515 0.556971 -0.008363 -0.058985 0.001976 
10.885392 6.932648 83.042809 -3.366050 -1.147612 -105.627571 -0.958734 -3.900241 1.851366 -0.401977 -1.737084 0.791577 -0.401977 -1.737084 0.791576 -0.299210 -1.303338 0.592494 5.564521 -21.313715 -12.445657 6.521023 -3.386419 -20.951503 9.230231 13.604653 -5.266233 39.629400 37.021487 3.054917 32.958494 15.056561 49.293707 2.607357 14.431324 10.373413 -6.520627 -4.799898 -5.083454 -53.093840 26.749082 -19.707061 -34.060323 -26.183846 -60.366025 -32.396028 -4.455518 11.052700 -0.512380 -5.496396 -2.090917 1.826650 -2.419854 -10.581404 -0.840374 4.111432 1.688627 0.023787 -0.056751 0.008996 -0.731838 -6.359852 1.554333 0.653998 -0.376206 -0.899332 -0.295052 3.349246 0.598648 -0.018126 -0.058300 0.001108 
10.864663 6.932199 83.041222 -3.443122 -1.171201 -105.640159 -0.941194 -3.804155 1.816094 -0.395623 -1.694270 0.777645 -0.395623 -1.694269 0.777645 -0.294540 -1.271208 0.582093 5.548937 -21.482519 -12.524771 6.492202 -3.703804 -21.096605 9.459273 12.916070 -5.526837 41.654144 37.704915 4.954321 33.457842 16.967623 49.243755 0.007874 17.704067 12.133122 -6.830256 -4.988983 -5.025339 -54.169325 26.659171 -19.270136 -34.693492 -24.465961 -60.050907 -32.216148 -3.381734 10.185109 -0.506210 -5.542465 -2.152784 1.825154 -2.461200 -10.530587 -0.849629 4.130705 1.698534 0.022936 -0.053692 0.009161 -0.731185 -6.400931 1.511333 0.662060 -0.435525 -0.886919 -0.284432 3.369119 0.634602 -0.026887 -0.056347 -0.000038 
10.844020 6.929812 83.039619 -3.519673 -1.196132 -105.665485 -0.923239 -3.731151 1.779016 -0.389353 -1.661420 0.762117 -0.389353 -1.661420 0.762115 -0.289922 -1.246554 0.570488 5.518757 -21.632293 -12.574083 6.443283 -3.986384 -21.192188 9.688036 12.296767 -5.731777 43.706418 38.209700 6.810172 33.734980 18.649152 49.163917 -2.771245 20.700790 13.896883 -7.083917 -5.261937 -4.980486 -55.191965 26.472263 -18.918490 -35.145937 -22.760477 -59.891470 -32.211879 -2.391792 9.369955 -0.502534 -5.583903 -2.163408 1.829592 -2.507538 -10.512286 -0.861822 4.150361 1.718603 0.022986 -0.050030 0.009315 -0.728249 -6.445736 1.513879 0.669763 -0.491089 -0.906364 -0.275537 3.390714 0.664913 -0.034065 -0.055052 -0.000368 
10.823910 6.928980 83.037079 -3.595699 -1.223320 -105.706808 -0.893907 -3.672827 1.747184 -0.377716 -1.634921 0.749035 -0.377716 -1.634921 0.749036 -0.281264 -1.226655 0.560729 5.467881 -21.768880 -12.601379 6.361740 -4.246106 -21.254012 9.798774 11.213064 -5.955886 46.101516 38.728566 9.038950 33.933278 20.272502 49.154833 -5.540200 23.459635 15.616654 -7.277068 -5.542346 -4.849305 -56.229546 26.150933 -18.652395 -35.566400 -21.106838 -59.797808 -32.394781 -1.472699 8.685748 -0.502252 -5.619332 -2.151626 1.844839 -2.563460 -10.498447 -0.878166 4.173180 1.717045 0.021366 -0.046389 0.008202 -0.723314 -6.490260 1.542380 0.672404 -0.551675 -0.931435 -0.263426 3.420036 0.689421 -0.039579 -0.055970 -0.000004 
